<svg width="28" height="28" viewBox="0 0 28 28" fill="none" xmlns="http://www.w3.org/2000/svg">
<path d="M24.6052 8.14334C23.6135 7.04667 21.9569 6.49834 19.5535 6.49834H19.2735V6.45167C19.2735 4.49167 19.2735 2.065 14.8869 2.065H13.1135C8.72687 2.065 8.72687 4.50334 8.72687 6.45167V6.51H8.44687C6.03187 6.51 4.38687 7.05834 3.39521 8.155C2.24021 9.43834 2.27521 11.165 2.39187 12.3433L2.40354 12.425L2.49766 13.4133C2.51193 13.5631 2.5926 13.6983 2.71841 13.7808C2.99298 13.9609 3.48814 14.2811 3.78021 14.4433C3.94354 14.5483 4.11854 14.6417 4.29354 14.735C6.28854 15.8317 8.48187 16.5667 10.7102 16.9283C10.8152 18.025 11.2935 19.3083 13.8485 19.3083C16.4035 19.3083 16.9052 18.0367 16.9869 16.905C19.3669 16.52 21.6652 15.6917 23.7419 14.4783C23.8119 14.4433 23.8585 14.4083 23.9169 14.3733C24.3901 14.1058 24.8815 13.7748 25.3271 13.4523C25.44 13.3706 25.5123 13.2446 25.5277 13.1061L25.5502 12.9033L25.6085 12.355C25.6202 12.285 25.6202 12.2267 25.6319 12.145C25.7252 10.9667 25.7019 9.35667 24.6052 8.14334ZM15.2719 16.135C15.2719 17.3717 15.2719 17.5583 13.8369 17.5583C12.4019 17.5583 12.4019 17.3367 12.4019 16.1467V14.6767H15.2719V16.135ZM10.3952 6.49834V6.45167C10.3952 4.46834 10.3952 3.73334 13.1135 3.73334H14.8869C17.6052 3.73334 17.6052 4.48 17.6052 6.45167V6.51H10.3952V6.49834Z" fill="#1C1C1E" fill-opacity="0.72"/>
<path d="M24.4882 15.9584C24.8415 15.7895 25.2476 16.07 25.2122 16.46L24.78 21.2217C24.535 23.555 23.5783 25.935 18.445 25.935H9.55498C4.42165 25.935 3.46498 23.555 3.21998 21.2333L2.80927 16.7155C2.77423 16.33 3.17087 16.0497 3.52322 16.2099C4.82749 16.8028 7.43596 17.9465 8.9997 18.3474C9.16423 18.3896 9.2975 18.5072 9.3677 18.6619C10.0672 20.2029 11.6106 21.0233 13.8483 21.0233C16.0639 21.0233 17.6273 20.1713 18.3288 18.6271C18.3991 18.4723 18.5327 18.3547 18.6973 18.3123C20.3563 17.8854 23.1267 16.6095 24.4882 15.9584Z" fill="#1C1C1E" fill-opacity="0.72"/>
</svg>
