<svg width="28" height="28" viewBox="0 0 28 28" fill="none" xmlns="http://www.w3.org/2000/svg">
<path d="M25.6667 9.93992V4.64325C25.6667 2.99825 24.92 2.33325 23.065 2.33325H18.3517C16.4967 2.33325 15.75 2.99825 15.75 4.64325V9.92825C15.75 11.5849 16.4967 12.2383 18.3517 12.2383H23.065C24.92 12.2499 25.6667 11.5849 25.6667 9.93992Z" fill="#1C1C1E" fill-opacity="0.72"/>
<path d="M25.6667 23.065V18.3517C25.6667 16.4967 24.92 15.75 23.065 15.75H18.3517C16.4967 15.75 15.75 16.4967 15.75 18.3517V23.065C15.75 24.92 16.4967 25.6667 18.3517 25.6667H23.065C24.92 25.6667 25.6667 24.92 25.6667 23.065Z" fill="#1C1C1E" fill-opacity="0.72"/>
<path d="M12.25 9.93992V4.64325C12.25 2.99825 11.5033 2.33325 9.64831 2.33325H4.93498C3.07998 2.33325 2.33331 2.99825 2.33331 4.64325V9.92825C2.33331 11.5849 3.07998 12.2383 4.93498 12.2383H9.64831C11.5033 12.2499 12.25 11.5849 12.25 9.93992Z" fill="#1C1C1E" fill-opacity="0.72"/>
<path d="M12.25 23.065V18.3517C12.25 16.4967 11.5033 15.75 9.64831 15.75H4.93498C3.07998 15.75 2.33331 16.4967 2.33331 18.3517V23.065C2.33331 24.92 3.07998 25.6667 4.93498 25.6667H9.64831C11.5033 25.6667 12.25 24.92 12.25 23.065Z" fill="#1C1C1E" fill-opacity="0.72"/>
</svg>
