<svg width="20" height="20" viewBox="0 0 20 20" fill="none" xmlns="http://www.w3.org/2000/svg">
<path d="M10 0.25C8.07164 0.25 6.18657 0.821828 4.58319 1.89317C2.97982 2.96451 1.73013 4.48726 0.992179 6.26884C0.254225 8.05042 0.061142 10.0108 0.437348 11.9021C0.813554 13.7934 1.74215 15.5307 3.10571 16.8943C4.46928 18.2579 6.20656 19.1865 8.09787 19.5627C9.98919 19.9389 11.9496 19.7458 13.7312 19.0078C15.5127 18.2699 17.0355 17.0202 18.1068 15.4168C19.1782 13.8134 19.75 11.9284 19.75 10C19.7473 7.41498 18.7192 4.93661 16.8913 3.10872C15.0634 1.28084 12.585 0.25273 10 0.25ZM10 18.25C8.36831 18.25 6.77326 17.7661 5.41655 16.8596C4.05984 15.9531 3.00242 14.6646 2.378 13.1571C1.75358 11.6496 1.5902 9.99085 1.90853 8.3905C2.22685 6.79016 3.01259 5.32015 4.16637 4.16637C5.32016 3.01259 6.79017 2.22685 8.39051 1.90852C9.99085 1.59019 11.6497 1.75357 13.1571 2.37799C14.6646 3.00242 15.9531 4.05984 16.8596 5.41655C17.7661 6.77325 18.25 8.3683 18.25 10C18.2475 12.1873 17.3775 14.2843 15.8309 15.8309C14.2843 17.3775 12.1873 18.2475 10 18.25ZM13.75 11.875C13.75 12.5712 13.4734 13.2389 12.9812 13.7312C12.4889 14.2234 11.8212 14.5 11.125 14.5H10.75V15.25C10.75 15.4489 10.671 15.6397 10.5303 15.7803C10.3897 15.921 10.1989 16 10 16C9.80109 16 9.61033 15.921 9.46967 15.7803C9.32902 15.6397 9.25 15.4489 9.25 15.25V14.5H7.75C7.55109 14.5 7.36033 14.421 7.21967 14.2803C7.07902 14.1397 7 13.9489 7 13.75C7 13.5511 7.07902 13.3603 7.21967 13.2197C7.36033 13.079 7.55109 13 7.75 13H11.125C11.4234 13 11.7095 12.8815 11.9205 12.6705C12.1315 12.4595 12.25 12.1734 12.25 11.875C12.25 11.5766 12.1315 11.2905 11.9205 11.0795C11.7095 10.8685 11.4234 10.75 11.125 10.75H8.875C8.17881 10.75 7.51113 10.4734 7.01885 9.98116C6.52657 9.48887 6.25 8.82119 6.25 8.125C6.25 7.42881 6.52657 6.76113 7.01885 6.26884C7.51113 5.77656 8.17881 5.5 8.875 5.5H9.25V4.75C9.25 4.55109 9.32902 4.36032 9.46967 4.21967C9.61033 4.07902 9.80109 4 10 4C10.1989 4 10.3897 4.07902 10.5303 4.21967C10.671 4.36032 10.75 4.55109 10.75 4.75V5.5H12.25C12.4489 5.5 12.6397 5.57902 12.7803 5.71967C12.921 5.86032 13 6.05109 13 6.25C13 6.44891 12.921 6.63968 12.7803 6.78033C12.6397 6.92098 12.4489 7 12.25 7H8.875C8.57664 7 8.29049 7.11853 8.07951 7.3295C7.86853 7.54048 7.75 7.82663 7.75 8.125C7.75 8.42337 7.86853 8.70952 8.07951 8.9205C8.29049 9.13147 8.57664 9.25 8.875 9.25H11.125C11.8212 9.25 12.4889 9.52656 12.9812 10.0188C13.4734 10.5111 13.75 11.1788 13.75 11.875Z" fill="#537FE7"/>
</svg>
