<svg width="32" height="32" viewBox="0 0 32 32" fill="none" xmlns="http://www.w3.org/2000/svg">
<path d="M25.3332 18.6667C23.8398 18.6667 22.6665 17.4667 22.6665 16C22.6665 14.5333 23.8665 13.3333 25.3332 13.3333C26.7998 13.3333 27.9998 14.5333 27.9998 16C27.9998 17.4667 26.8265 18.6667 25.3332 18.6667Z" fill="#0049FC"/>
<path d="M16.0002 18.6667C14.5068 18.6667 13.3335 17.4667 13.3335 16C13.3335 14.5333 14.5335 13.3333 16.0002 13.3333C17.4668 13.3333 18.6668 14.5333 18.6668 16C18.6668 17.4667 17.4935 18.6667 16.0002 18.6667Z" fill="#0049FC"/>
<path d="M6.66667 18.6667C5.17333 18.6667 4 17.4667 4 16C4 14.5333 5.2 13.3333 6.66667 13.3333C8.13333 13.3333 9.33333 14.5333 9.33333 16C9.33333 17.4667 8.16 18.6667 6.66667 18.6667Z" fill="#0049FC"/>
</svg>
