<svg width="48" height="48" viewBox="0 0 48 48" fill="none" xmlns="http://www.w3.org/2000/svg">
<g clip-path="url(#clip0_633_7495)">
<rect width="48" height="48" rx="8" fill="#FAFAFA"/>
<path d="M34.5773 24.0468C34.577 29.3796 30.5893 33.8698 25.2939 34.5V27.3753H27.1655C27.4278 27.3767 27.6486 27.179 27.6759 26.918L27.8779 25.3761C27.892 25.2297 27.8459 25.0838 27.7503 24.972C27.6525 24.8563 27.5084 24.7901 27.3569 24.7912H25.2939V22.9834C25.2939 22.3961 25.77 21.92 26.3573 21.92H27.4207C27.5579 21.9229 27.6905 21.8704 27.7885 21.7744C27.8865 21.6783 27.9418 21.5469 27.9417 21.4096V19.6976C27.9383 19.4312 27.7383 19.2084 27.4739 19.1765C27.4739 19.1765 26.7082 19.1127 25.7937 19.1127C23.518 19.1127 22.2632 20.4632 22.2632 22.9196V24.7912H20.1364C19.8487 24.7912 19.6154 25.0245 19.6154 25.3123V26.8542C19.6154 27.142 19.8487 27.3753 20.1364 27.3753H22.1994V34.4149C16.7032 33.4405 12.9203 28.3494 13.5732 22.8058C14.2261 17.2622 19.0885 13.1894 24.6607 13.5186C30.2328 13.8479 34.5817 18.4649 34.5773 24.0468Z" fill="#2474E1"/>
</g>
<defs>
<clipPath id="clip0_633_7495">
<rect width="48" height="48" rx="8" fill="white"/>
</clipPath>
</defs>
</svg>
