<svg width="24" height="24" viewBox="0 0 24 24" fill="none" xmlns="http://www.w3.org/2000/svg">
<path d="M17.25 3H6.75C6.35218 3 5.97064 3.15804 5.68934 3.43934C5.40804 3.72064 5.25 4.10218 5.25 4.5V21C5.25007 21.1338 5.28595 21.2652 5.35393 21.3805C5.42191 21.4958 5.5195 21.5908 5.63659 21.6557C5.75367 21.7206 5.88598 21.7529 6.01978 21.7494C6.15358 21.7458 6.284 21.7066 6.3975 21.6356L12 18.1341L17.6034 21.6356C17.7169 21.7063 17.8472 21.7454 17.9809 21.7488C18.1146 21.7522 18.2467 21.7198 18.3636 21.655C18.4806 21.5902 18.5781 21.4953 18.646 21.3801C18.7139 21.2649 18.7498 21.1337 18.75 21V4.5C18.75 4.10218 18.592 3.72064 18.3107 3.43934C18.0294 3.15804 17.6478 3 17.25 3ZM17.25 4.5V15.1472L12.3966 12.1144C12.2774 12.0399 12.1396 12.0004 11.9991 12.0004C11.8585 12.0004 11.7208 12.0399 11.6016 12.1144L6.75 15.1462V4.5H17.25ZM12.3966 16.6144C12.2774 16.5399 12.1396 16.5004 11.9991 16.5004C11.8585 16.5004 11.7208 16.5399 11.6016 16.6144L6.75 19.6472V16.9153L12 13.6341L17.25 16.9153V19.6472L12.3966 16.6144Z" fill="#6E6E9B"/>
</svg>
