<svg width="48" height="48" viewBox="0 0 48 48" fill="none" xmlns="http://www.w3.org/2000/svg">
<g clip-path="url(#clip0_633_7500)">
<rect width="48" height="48" rx="8" fill="#FAFAFA"/>
<path d="M18.2226 21.354C18.1388 21.5325 18.0655 21.732 18.0027 21.921L14.6206 19.2855C16.3378 15.852 19.8769 13.5 23.971 13.5C26.7981 13.5 29.1646 14.5395 30.976 16.23L28.0232 19.128C27.2589 18.414 25.9395 17.5635 23.971 17.5635C21.4162 17.5635 19.2173 19.1175 18.2226 21.354Z" fill="#EA4335"/>
<path d="M17.6674 24C17.6674 24.7245 17.793 25.428 18.0129 26.079L14.6308 28.7064L14.6204 28.7146C13.9084 27.2866 13.5 25.6905 13.5 24C13.5 22.3095 13.9084 20.7135 14.6204 19.2855L18.0024 21.921C17.793 22.572 17.6674 23.2755 17.6674 24Z" fill="#FBBC05"/>
<path d="M23.9705 30.447C25.5307 30.447 26.7244 30.0165 27.6039 29.397L30.9022 31.959C29.1745 33.5655 26.7977 34.5 23.9705 34.5C19.8765 34.5 16.3478 32.148 14.6306 28.7145V28.7064L14.6201 28.7145L14.6306 28.704V28.7064L18.0127 26.079C18.8503 28.62 21.2063 30.447 23.9705 30.447Z" fill="#34A853"/>
<path d="M23.9707 22.0996H33.8028C33.9494 22.7506 34.0227 23.3806 34.0227 24.2311C34.0227 27.4336 32.8814 30.1321 30.9024 31.9591L27.6041 29.3971C28.9967 28.4206 29.6249 26.9611 29.7401 25.9951H23.9707V22.0996Z" fill="#4285F4"/>
</g>
<defs>
<clipPath id="clip0_633_7500">
<rect width="48" height="48" rx="8" fill="white"/>
</clipPath>
</defs>
</svg>
