<svg width="49" height="49" viewBox="0 0 49 49" fill="none" xmlns="http://www.w3.org/2000/svg">
<path fill-rule="evenodd" clip-rule="evenodd" d="M16.1972 12.1479C16.1972 10.537 16.8371 8.99204 17.9762 7.85296C19.1153 6.71387 20.6602 6.07394 22.2711 6.07394H26.3204C27.9314 6.07394 29.4763 6.71387 30.6154 7.85296C31.7545 8.99204 32.3944 10.537 32.3944 12.1479V42.5177H16.1972V12.1479ZM12.1479 14.1725H10.1232C8.51232 14.1725 6.96739 14.8125 5.8283 15.9516C4.68921 17.0906 4.04928 18.6356 4.04928 20.2465V36.4437C4.04928 38.0546 4.68921 39.5996 5.8283 40.7386C6.96739 41.8777 8.51232 42.5177 10.1232 42.5177H12.1479V14.1725ZM36.4437 42.5177H38.4683C40.0793 42.5177 41.6242 41.8777 42.7633 40.7386C43.9024 39.5996 44.5423 38.0546 44.5423 36.4437V20.2465C44.5423 18.6356 43.9024 17.0906 42.7633 15.9516C41.6242 14.8125 40.0793 14.1725 38.4683 14.1725H36.4437V42.5177ZM20.2465 14.1725H28.3451V12.1479C28.3451 11.6109 28.1318 11.0959 27.7521 10.7162C27.3724 10.3366 26.8574 10.1232 26.3204 10.1232H22.2711C21.7342 10.1232 21.2192 10.3366 20.8395 10.7162C20.4598 11.0959 20.2465 11.6109 20.2465 12.1479V14.1725Z" fill="#537FE7"/>
</svg>
