<svg width="222" height="72" viewBox="0 0 222 72" fill="none" xmlns="http://www.w3.org/2000/svg">
<path opacity="0.72" d="M49.5988 11.8125L60.4969 17.6552C65.4309 20.7855 64.2467 28.2168 60.4975 34.265L49.5659 28.4014C53.3455 22.2894 54.492 14.7565 49.5988 11.8125Z" fill="#00CBFE"/>
<path opacity="0.88" d="M45.0784 42.4736L34.1499 36.6518L49.5661 28.4014L60.4977 34.265L45.0784 42.4736Z" fill="#00CBFE"/>
<path d="M45.0937 25.869L34.1652 20.0544L34.1348 53.248L45.0633 59.0625L45.0937 25.869Z" fill="#00CBFE"/>
<path opacity="0.8" d="M45.0936 25.869L34.165 20.0544L49.5989 11.8125L60.497 17.6552L45.0936 25.869Z" fill="#00CBFE"/>
<path opacity="0.72" d="M22.0783 30.0889L11.1467 35.9525C6.21273 39.0827 7.39691 46.5073 11.1461 52.556L22.0947 46.6817C18.3151 40.5697 17.1851 33.0328 22.0783 30.0889Z" fill="#0049FC"/>
<path opacity="0.88" d="M26.5812 60.75L37.5098 54.9354L22.0947 46.6816L11.1461 52.556L26.5812 60.75Z" fill="#0049FC"/>
<path d="M26.5508 27.5565L37.4793 21.7419L37.5098 54.9355L26.5812 60.75L26.5508 27.5565Z" fill="#0049FC"/>
<path opacity="0.8" d="M26.551 27.5565L37.4795 21.7419L22.0456 13.5L11.1475 19.3427L26.551 27.5565Z" fill="#0049FC"/>
<path d="M83.8529 47.25C82.219 47.25 80.7923 46.9569 79.5729 46.3708C78.3779 45.7602 77.3536 44.9176 76.5 43.8429L80.3411 40.1428C80.7801 40.7534 81.2922 41.2174 81.8775 41.5349C82.4872 41.8524 83.1701 42.0112 83.9261 42.0112C84.6577 42.0112 85.2918 41.8647 85.8284 41.5716C86.3649 41.2541 86.7917 40.8144 87.1087 40.2527C87.4258 39.6666 87.5843 38.9461 87.5843 38.0912V20.9827H93.3642V37.7615C93.3642 39.691 92.974 41.364 92.1936 42.7805C91.4132 44.1971 90.3157 45.2961 88.9012 46.0777C87.4867 46.8592 85.804 47.25 83.8529 47.25Z" fill="#1C1C1E"/>
<path d="M104.868 47.25C103.039 47.25 101.381 46.847 99.8931 46.041C98.4298 45.2106 97.2714 44.0872 96.4178 42.6706C95.5642 41.2541 95.1375 39.6666 95.1375 37.9081C95.1375 36.1496 95.5642 34.5743 96.4178 33.1822C97.2714 31.79 98.4298 30.691 99.8931 29.885C101.356 29.0546 103.015 28.6394 104.868 28.6394C106.722 28.6394 108.38 29.0424 109.843 29.8484C111.307 30.6543 112.465 31.7656 113.319 33.1822C114.172 34.5743 114.599 36.1496 114.599 37.9081C114.599 39.6666 114.172 41.2541 113.319 42.6706C112.465 44.0872 111.307 45.2106 109.843 46.041C108.38 46.847 106.722 47.25 104.868 47.25ZM104.868 42.1577C105.673 42.1577 106.38 41.9868 106.99 41.6448C107.6 41.2785 108.063 40.7778 108.38 40.1428C108.722 39.4834 108.892 38.7385 108.892 37.9081C108.892 37.0777 108.722 36.3572 108.38 35.7466C108.039 35.1116 107.563 34.6231 106.953 34.2812C106.368 33.9149 105.673 33.7317 104.868 33.7317C104.088 33.7317 103.393 33.9149 102.783 34.2812C102.173 34.6231 101.698 35.1116 101.356 35.7466C101.015 36.3816 100.844 37.1143 100.844 37.9447C100.844 38.7507 101.015 39.4834 101.356 40.1428C101.698 40.7778 102.173 41.2785 102.783 41.6448C103.393 41.9868 104.088 42.1577 104.868 42.1577Z" fill="#1C1C1E"/>
<path d="M126.503 47.2134C125.308 47.2134 124.211 46.9691 123.211 46.4807C122.211 45.9678 121.394 45.2961 120.76 44.4657C120.126 43.6109 119.76 42.6584 119.663 41.6082V34.098C119.76 33.0478 120.126 32.1197 120.76 31.3138C121.394 30.4834 122.211 29.8362 123.211 29.3721C124.211 28.9081 125.308 28.676 126.503 28.676C128.186 28.676 129.674 29.079 130.966 29.885C132.283 30.691 133.308 31.79 134.039 33.1822C134.795 34.5743 135.173 36.1618 135.173 37.9447C135.173 39.7276 134.795 41.3151 134.039 42.7073C133.308 44.0994 132.283 45.1984 130.966 46.0044C129.674 46.8104 128.186 47.2134 126.503 47.2134ZM125.516 42.1577C126.296 42.1577 126.979 41.9746 127.564 41.6082C128.174 41.2419 128.65 40.7412 128.991 40.1062C129.332 39.4712 129.503 38.7507 129.503 37.9447C129.503 37.1143 129.332 36.3816 128.991 35.7466C128.65 35.1116 128.174 34.6231 127.564 34.2812C126.979 33.9149 126.296 33.7317 125.516 33.7317C124.735 33.7317 124.04 33.9149 123.431 34.2812C122.821 34.6231 122.345 35.1116 122.004 35.7466C121.687 36.3816 121.528 37.1143 121.528 37.9447C121.528 38.7751 121.699 39.5078 122.04 40.1428C122.382 40.7778 122.845 41.2785 123.431 41.6448C124.04 41.9868 124.735 42.1577 125.516 42.1577ZM116.26 46.847V20.25H121.857V33.402L120.943 37.7249L121.784 42.0478V46.847H116.26Z" fill="#1C1C1E"/>
<path d="M144.044 37.4318V32.9623H149.604C150.311 32.9623 150.958 32.8158 151.543 32.5227C152.128 32.2296 152.592 31.8022 152.933 31.2405C153.274 30.6788 153.445 29.9949 153.445 29.1889C153.445 28.4074 153.274 27.7358 152.933 27.174C152.592 26.6123 152.128 26.1849 151.543 25.8918C150.958 25.5987 150.311 25.4522 149.604 25.4522H144.044V20.9827H150.445C152.079 20.9827 153.555 21.3124 154.872 21.9718C156.189 22.6313 157.225 23.5838 157.981 24.8294C158.762 26.0505 159.152 27.5037 159.152 29.1889C159.152 30.8742 158.762 32.3396 157.981 33.5851C157.225 34.8063 156.189 35.7588 154.872 36.4427C153.555 37.1021 152.079 37.4318 150.445 37.4318H144.044ZM139.654 46.847V20.9827H145.397V46.847H139.654Z" fill="#1C1C1E"/>
<path d="M168.797 47.25C166.968 47.25 165.31 46.847 163.822 46.041C162.359 45.2106 161.201 44.0872 160.347 42.6706C159.493 41.2541 159.067 39.6666 159.067 37.9081C159.067 36.1496 159.493 34.5743 160.347 33.1822C161.201 31.79 162.359 30.691 163.822 29.885C165.286 29.0546 166.944 28.6394 168.797 28.6394C170.651 28.6394 172.309 29.0424 173.773 29.8484C175.236 30.6543 176.394 31.7656 177.248 33.1822C178.101 34.5743 178.528 36.1496 178.528 37.9081C178.528 39.6666 178.101 41.2541 177.248 42.6706C176.394 44.0872 175.236 45.2106 173.773 46.041C172.309 46.847 170.651 47.25 168.797 47.25ZM168.797 42.1577C169.602 42.1577 170.309 41.9868 170.919 41.6448C171.529 41.2785 171.992 40.7778 172.309 40.1428C172.651 39.4834 172.821 38.7385 172.821 37.9081C172.821 37.0777 172.651 36.3572 172.309 35.7466C171.968 35.1116 171.492 34.6231 170.883 34.2812C170.297 33.9149 169.602 33.7317 168.797 33.7317C168.017 33.7317 167.322 33.9149 166.712 34.2812C166.103 34.6231 165.627 35.1116 165.286 35.7466C164.944 36.3816 164.773 37.1143 164.773 37.9447C164.773 38.7507 164.944 39.4834 165.286 40.1428C165.627 40.7778 166.103 41.2785 166.712 41.6448C167.322 41.9868 168.017 42.1577 168.797 42.1577Z" fill="#1C1C1E"/>
<path d="M180.19 46.847V29.0424H185.787V46.847H180.19ZM185.787 37.0655L183.445 35.2337C183.909 33.1577 184.689 31.5458 185.787 30.3979C186.884 29.25 188.408 28.676 190.359 28.676C191.213 28.676 191.957 28.8104 192.591 29.079C193.249 29.3233 193.822 29.714 194.31 30.2514L190.981 34.4644C190.737 34.1957 190.433 33.9881 190.067 33.8416C189.701 33.695 189.286 33.6218 188.823 33.6218C187.896 33.6218 187.152 33.9149 186.591 34.501C186.055 35.0628 185.787 35.9176 185.787 37.0655Z" fill="#1C1C1E"/>
<path d="M198.504 46.847V21.6788H204.101V46.847H198.504ZM195.518 33.805V29.0424H207.087V33.805H195.518Z" fill="#1C1C1E"/>
</svg>
