<svg width="32" height="32" viewBox="0 0 32 32" fill="none" xmlns="http://www.w3.org/2000/svg">
<path d="M25.7867 19.32L24.4533 17.1066C24.1733 16.6133 23.92 15.68 23.92 15.1333V11.76C23.92 8.62663 22.08 5.91996 19.4267 4.65329C18.7333 3.42663 17.4533 2.66663 15.9867 2.66663C14.5333 2.66663 13.2267 3.45329 12.5333 4.69329C9.93333 5.98663 8.13333 8.66663 8.13333 11.76V15.1333C8.13333 15.68 7.87999 16.6133 7.59999 17.0933L6.25333 19.32C5.72 20.2133 5.59999 21.2 5.93333 22.1066C6.25333 23 7.01333 23.6933 7.99999 24.0266C10.5867 24.9066 13.3067 25.3333 16.0267 25.3333C18.7467 25.3333 21.4667 24.9066 24.0533 24.04C24.9867 23.7333 25.7067 23.0266 26.0533 22.1066C26.4 21.1866 26.3067 20.1733 25.7867 19.32Z" fill="#0049FC"/>
<path d="M19.7733 26.68C19.2133 28.2266 17.7333 29.3333 16 29.3333C14.9467 29.3333 13.9067 28.9066 13.1733 28.1466C12.7467 27.7466 12.4267 27.2133 12.24 26.6666C12.4133 26.6933 12.5867 26.7066 12.7733 26.7333C13.08 26.7733 13.4 26.8133 13.72 26.84C14.48 26.9066 15.2533 26.9466 16.0267 26.9466C16.7867 26.9466 17.5467 26.9066 18.2933 26.84C18.5733 26.8133 18.8533 26.8 19.12 26.76C19.3333 26.7333 19.5467 26.7066 19.7733 26.68Z" fill="#0049FC"/>
</svg>
