<svg width="28" height="28" viewBox="0 0 28 28" fill="none" xmlns="http://www.w3.org/2000/svg">
<path d="M14.0002 2.33333C10.9435 2.33333 8.4585 4.81833 8.4585 7.875C8.4585 10.8733 10.8035 13.3 13.8602 13.405C13.9535 13.3933 14.0468 13.3933 14.1168 13.405C14.1402 13.405 14.1518 13.405 14.1752 13.405C14.1868 13.405 14.1868 13.405 14.1985 13.405C17.1852 13.3 19.5302 10.8733 19.5418 7.875C19.5418 4.81833 17.0568 2.33333 14.0002 2.33333Z" fill="#1C1C1E" fill-opacity="0.72"/>
<path d="M19.9266 16.5083C16.6716 14.3383 11.3633 14.3383 8.08495 16.5083C6.60329 17.5 5.78662 18.8417 5.78662 20.2767C5.78662 21.7117 6.60329 23.0417 8.07329 24.0217C9.70662 25.1183 11.8533 25.6667 14 25.6667C16.1466 25.6667 18.2933 25.1183 19.9266 24.0217C21.3966 23.03 22.2133 21.7 22.2133 20.2533C22.2016 18.8183 21.3966 17.4883 19.9266 16.5083Z" fill="#1C1C1E" fill-opacity="0.72"/>
</svg>
