<svg width="28" height="28" viewBox="0 0 28 28" fill="none" xmlns="http://www.w3.org/2000/svg">
<path d="M23.4502 10.7567C21.3385 10.7567 20.4752 9.26333 21.5252 7.43166C22.1318 6.37 21.7702 5.01666 20.7085 4.41L18.6902 3.255C17.7685 2.70666 16.5785 3.03333 16.0302 3.955L15.9018 4.17666C14.8518 6.00833 13.1252 6.00833 12.0635 4.17666L11.9352 3.955C11.4102 3.03333 10.2202 2.70666 9.2985 3.255L7.28016 4.41C6.2185 5.01666 5.85683 6.38166 6.4635 7.44333C7.52516 9.26333 6.66183 10.7567 4.55016 10.7567C3.33683 10.7567 2.3335 11.7483 2.3335 12.9733V15.0267C2.3335 16.24 3.32516 17.2433 4.55016 17.2433C6.66183 17.2433 7.52516 18.7367 6.4635 20.5683C5.85683 21.63 6.2185 22.9833 7.28016 23.59L9.2985 24.745C10.2202 25.2933 11.4102 24.9667 11.9585 24.045L12.0868 23.8233C13.1368 21.9917 14.8635 21.9917 15.9252 23.8233L16.0535 24.045C16.6018 24.9667 17.7918 25.2933 18.7135 24.745L20.7318 23.59C21.7935 22.9833 22.1552 21.6183 21.5485 20.5683C20.4868 18.7367 21.3502 17.2433 23.4618 17.2433C24.6752 17.2433 25.6785 16.2517 25.6785 15.0267V12.9733C25.6668 11.76 24.6752 10.7567 23.4502 10.7567ZM14.0002 17.7917C11.9118 17.7917 10.2085 16.0883 10.2085 14C10.2085 11.9117 11.9118 10.2083 14.0002 10.2083C16.0885 10.2083 17.7918 11.9117 17.7918 14C17.7918 16.0883 16.0885 17.7917 14.0002 17.7917Z" fill="#1C1C1E" fill-opacity="0.72"/>
</svg>
