<svg width="24" height="24" viewBox="0 0 24 24" fill="none" xmlns="http://www.w3.org/2000/svg">
<path d="M16.5 15C15.9997 14.9998 15.5044 15.1001 15.0435 15.2948C14.5827 15.4894 14.1655 15.7746 13.8169 16.1334L9.49498 13.3556C9.83494 12.4838 9.83494 11.5162 9.49498 10.6444L13.8169 7.86656C14.466 8.53155 15.339 8.9318 16.2665 8.98971C17.194 9.04762 18.11 8.75908 18.8369 8.18001C19.5637 7.60094 20.0497 6.77261 20.2005 5.85561C20.3513 4.93861 20.1563 3.99827 19.6532 3.21691C19.1501 2.43554 18.3748 1.86882 17.4776 1.62661C16.5804 1.38439 15.6252 1.48396 14.7972 1.90599C13.9693 2.32802 13.3275 3.04245 12.9964 3.91077C12.6652 4.77909 12.6683 5.73944 13.005 6.60562L8.68311 9.38343C8.16267 8.84913 7.49472 8.48216 6.76464 8.32944C6.03457 8.17672 5.27553 8.24519 4.58457 8.52609C3.8936 8.80699 3.3021 9.28756 2.88568 9.90637C2.46926 10.5252 2.24683 11.2541 2.24683 12C2.24683 12.7459 2.46926 13.4748 2.88568 14.0936C3.3021 14.7124 3.8936 15.193 4.58457 15.4739C5.27553 15.7548 6.03457 15.8233 6.76464 15.6705C7.49472 15.5178 8.16267 15.1509 8.68311 14.6166L13.005 17.3944C12.7155 18.1411 12.6726 18.9609 12.8827 19.7338C13.0928 20.5067 13.5449 21.1919 14.1726 21.6893C14.8004 22.1867 15.5709 22.47 16.3713 22.4977C17.1718 22.5255 17.9601 22.2963 18.6208 21.8436C19.2815 21.391 19.78 20.7387 20.0431 19.9822C20.3063 19.2258 20.3204 18.405 20.0833 17.64C19.8463 16.875 19.3705 16.2059 18.7257 15.7309C18.0809 15.2558 17.3009 14.9997 16.5 15ZM16.5 3C16.945 3 17.38 3.13196 17.75 3.37919C18.12 3.62642 18.4084 3.97783 18.5787 4.38896C18.749 4.80009 18.7936 5.25249 18.7067 5.68895C18.6199 6.12541 18.4056 6.52632 18.091 6.84099C17.7763 7.15566 17.3754 7.36995 16.9389 7.45676C16.5025 7.54358 16.0501 7.49902 15.6389 7.32873C15.2278 7.15843 14.8764 6.87004 14.6292 6.50003C14.3819 6.13002 14.25 5.695 14.25 5.25C14.25 4.65326 14.487 4.08096 14.909 3.65901C15.3309 3.23705 15.9032 3 16.5 3ZM5.99998 14.25C5.55497 14.25 5.11996 14.118 4.74995 13.8708C4.37994 13.6236 4.09155 13.2722 3.92125 12.861C3.75096 12.4499 3.7064 11.9975 3.79321 11.561C3.88003 11.1246 4.09432 10.7237 4.40899 10.409C4.72366 10.0943 5.12457 9.88005 5.56103 9.79323C5.99749 9.70641 6.44989 9.75097 6.86102 9.92127C7.27215 10.0916 7.62355 10.38 7.87079 10.75C8.11802 11.12 8.24998 11.555 8.24998 12C8.24998 12.5967 8.01293 13.169 7.59097 13.591C7.16901 14.0129 6.59672 14.25 5.99998 14.25ZM16.5 21C16.055 21 15.62 20.868 15.2499 20.6208C14.8799 20.3736 14.5915 20.0222 14.4213 19.611C14.251 19.1999 14.2064 18.7475 14.2932 18.311C14.38 17.8746 14.5943 17.4737 14.909 17.159C15.2237 16.8443 15.6246 16.63 16.061 16.5432C16.4975 16.4564 16.9499 16.501 17.361 16.6713C17.7722 16.8416 18.1236 17.13 18.3708 17.5C18.618 17.87 18.75 18.305 18.75 18.75C18.75 19.3467 18.5129 19.919 18.091 20.341C17.669 20.7629 17.0967 21 16.5 21Z" fill="#6E6E9B"/>
</svg>
